<svg xmlns="http://www.w3.org/2000/svg" width="1200" height="360" viewBox="0 0 1200 360" role="img" aria-labelledby="title desc">
<title id="title">Luma</title><desc id="desc">Luma Windows screensaver. Flowing violet and turquoise light on a dark background.</desc>
<defs><linearGradient id="g"><stop stop-color="#8670ff"/><stop offset=".5" stop-color="#57e0d5"/><stop offset="1" stop-color="#e4b7ff"/></linearGradient></defs>
<rect width="1200" height="360" rx="24" fill="#0b0e1b"/>
<g fill="none" stroke="url(#g)" stroke-width="2" opacity=".5">
<path d="M450 360C550 120 800 390 1200 40"/><path d="M480 360C580 100 820 360 1200 60"/><path d="M510 360C610 80 840 330 1200 80"/><path d="M540 360C640 60 860 300 1200 100"/><path d="M570 360C670 40 880 270 1200 120"/><path d="M600 360C700 20 900 240 1200 140"/><path d="M630 360C730 0 920 210 1200 160"/><path d="M660 360C760 -20 940 180 1200 180"/>
</g><text x="80" y="192" fill="#f4f5ff" font-family="Segoe UI,Arial,sans-serif" font-size="100" font-weight="300" letter-spacing="12">Luma</text><text x="86" y="244" fill="#a5b5d0" font-family="Segoe UI,Arial,sans-serif" font-size="18" letter-spacing="4">WINDOWS SCREENSAVER</text></svg>
